<svg width="351" height="70" viewBox="0 0 351 10" fill="none" xmlns="http://www.w3.org/2000/svg">
<path d="M1 33.1111V36.8889M6.62903 31.2222V38.7778M12.2581 27.4444V42.5556M17.8871 19.8889V50.1111M23.5161 12.3333V57.6667M29.1452 1V69M34.7742 16.1111V53.8889M40.4032 18V52M46.0323 23.6667V46.3333M51.6613 29.3333V40.6667M57.2903 33.1111V36.8889M62.9194 33.1111V36.8889M68.5484 33.1111V36.8889M74.1774 33.1111V36.8889M79.8065 25.5556V44.4444M85.4355 16.1111V53.8889M91.0645 19.8889V50.1111M96.6936 12.3333V57.6667M102.323 1V69M107.952 6.66667V63.3333M113.581 18V52M119.21 23.6667V46.3333M124.839 29.3333V40.6667M130.468 33.1111V36.8889M136.097 33.1111V36.8889M141.726 33.1111V36.8889M147.355 33.1111V36.8889M152.984 31.2222V38.7778M158.613 27.4444V42.5556M164.242 19.8889V50.1111M169.871 12.3333V57.6667M175.5 1V69M181.129 16.1111V53.8889M186.758 16.1111V53.8889M192.387 6.66667V63.3333M198.016 1V69M203.645 16.1111V53.8889M209.274 27.4444V42.5556M214.903 27.4444V42.5556M220.532 27.4444V42.5556M226.161 25.5556V44.4444M231.79 16.1111V53.8889M237.419 1V69M243.048 6.66667V63.3333M248.677 1V69M254.306 6.66667V63.3333M259.935 1V69M265.565 16.1111V53.8889M271.194 27.4444V42.5556M276.823 33.1111V36.8889M282.452 33.1111V36.8889M288.081 25.5556V44.4444M293.71 16.1111V53.8889M299.339 25.5556V44.4444M304.968 6.66667V63.3333M310.597 1V69M316.226 6.66667V63.3333M321.855 1V69M327.484 16.1111V53.8889M333.113 16.1111V53.8889M338.742 25.5556V44.4444M344.371 29.3333V40.6667M350 33.1111V36.8889" stroke="url(#paint0_linear_16_1015)" stroke-width="1.5" stroke-linecap="round"/>
<defs>
<linearGradient id="paint0_linear_16_1015" x1="20.7016" y1="69" x2="350" y2="69" gradientUnits="userSpaceOnUse">
<stop stop-color="#00E9FF"/>
<stop offset="0.510417" stop-color="#896CEA"/>
<stop offset="1" stop-color="#00E9FF"/>
</linearGradient>
</defs>
</svg>
