<svg width="30" height="30" viewBox="0 0 30 30" fill="none" xmlns="http://www.w3.org/2000/svg">
<path d="M18.475 26.5625H11.525V19.125C11.525 18.4375 12.0875 17.875 12.775 17.875H17.225C17.9125 17.875 18.475 18.4375 18.475 19.125V26.5625V26.5625Z" stroke="#fff" stroke-width="1.5" stroke-linecap="round" stroke-linejoin="round"/>
<path d="M26.5625 14.2375V22.625C26.5625 24.8 24.8875 26.5625 22.8125 26.5625H7.1875C5.1125 26.5625 3.4375 24.8 3.4375 22.625V14.2375C3.4375 13.0625 
3.925 11.9625 4.7875 11.2125L12.6 4.34999C13.9875 3.12499 16.0125 3.12499 17.4 4.34999L25.2125 11.2125C26.075 11.9625 26.5625 13.0625 26.5625 14.2375Z" 
stroke="#fff" stroke-width="1.5" stroke-linecap="round" stroke-linejoin="round"/>
</svg>
