<svg width="30" height="30" viewBox="0 0 30 30" fill="none" xmlns="http://www.w3.org/2000/svg">
<path d="M26.25 10.8125V17.9375C26.25 18.3625 26.2375 18.775 26.2125 19.1625C25.3125 18.1375 23.975 17.5 22.5 17.5C19.7375 17.5 17.5 19.7375 17.5 22.5C17.5 23.4375 17.7625 24.325 18.225 25.075C18.475 25.5 18.8 25.8875 19.175 26.2125C18.7875 26.2375 18.375 26.25 17.9375 26.25H10.8125C4.87499 26.25 2.5 23.875 2.5 17.9375V10.8125C2.5 4.87503 4.87499 2.5 10.8125 2.5H17.9375C23.875 2.5 26.25 4.87503 26.25 10.8125Z" stroke="#9C9DB5" stroke-width="1.5" stroke-linecap="round" stroke-linejoin="round"/>
<path d="M8.40002 18.025C9.40104 18.025 10.2125 17.2135 10.2125 16.2125C10.2125 15.2114 9.40104 14.4 8.40002 14.4C7.399 14.4 6.58752 15.2114 6.58752 16.2125C6.58752 17.2135 7.399 18.025 8.40002 18.025Z" stroke="#9C9DB5" stroke-width="1.5" stroke-linecap="round" stroke-linejoin="round"/>
<path d="M16.85 15V7.92501C16.85 6.41251 15.9001 6.21247 14.9501 6.47497L11.3376 7.46244C10.6876 7.63744 10.225 8.16248 10.225 8.91248V10.175V11.025V16.2124" stroke="#9C9DB5" stroke-width="1.5" stroke-linecap="round" stroke-linejoin="round"/>
<path d="M15.0375 16.8125C16.0385 16.8125 16.85 16.001 16.85 15C16.85 13.999 16.0385 13.1875 15.0375 13.1875C14.0365 13.1875 13.225 13.999 13.225 15C13.225 16.001 14.0365 16.8125 15.0375 16.8125Z" stroke="#9C9DB5" stroke-width="1.5" stroke-linecap="round" stroke-linejoin="round"/>
<path d="M10.2125 11.0375L16.85 9.22501" stroke="#9C9DB5" stroke-width="1.5" stroke-linecap="round" stroke-linejoin="round"/>
<path d="M27.5 22.5C27.5 23.4375 27.2375 24.325 26.775 25.075C25.9125 26.525 24.325 27.5 22.5 27.5C20.675 27.5 19.0875 26.525 18.225 25.075C17.7625 24.325 17.5 23.4375 17.5 22.5C17.5 19.7375 19.7375 17.5 22.5 17.5C25.2625 17.5 27.5 19.7375 27.5 22.5Z" stroke="#9C9DB5" stroke-width="1.5" stroke-miterlimit="10" stroke-linecap="round" stroke-linejoin="round"/>
<path d="M24.3625 22.475H20.6375" stroke="#9C9DB5" stroke-width="1.5" stroke-miterlimit="10" stroke-linecap="round" stroke-linejoin="round"/>
<path d="M22.5 20.65V24.3875" stroke="#9C9DB5" stroke-width="1.5" stroke-miterlimit="10" stroke-linecap="round" stroke-linejoin="round"/>
</svg>
