<svg width="30" height="30" viewBox="0 0 30 30" fill="none" xmlns="http://www.w3.org/2000/svg">
<path d="M23.55 9.18751H18.7625C17.8625 9.18751 17.025 8.71251 16.5625 7.93751L15.75 6.57501C15.2875 5.80001 14.45 5.32501 13.55 5.32501H6.0125C4.5875 5.32501 3.4375 6.47501 3.4375 7.90001V11.75L3.4375 12.1623C3.4375 12.3052 3.4375 12.0375 3.4375 12.1875V21.625C3.4375 23.2875 4.7875 24.6375 6.45 24.6375H23.55C25.2125 24.6375 26.5625 23.2875 26.5625 21.625V12.1875C26.5625 10.5375 25.2125 9.18751 23.55 9.18751Z" stroke="#9C9DB5" stroke-width="1.5" stroke-linecap="round" stroke-linejoin="round"/>
<path d="M23.55 9.18752H3.4375V21.65C3.4375 23.3125 4.7875 24.6625 6.45 24.6625H23.55C25.2125 24.6625 26.5625 23.3125 26.5625 21.65V12.2125C26.5625 10.5375 25.2125 9.18752 23.55 9.18752Z" stroke="#9C9DB5" stroke-width="1.5" stroke-linecap="round" stroke-linejoin="round"/>
</svg>

