<svg width="30" height="30" viewBox="0 0 30 30" fill="none" xmlns="http://www.w3.org/2000/svg">
<g clip-path="url(#clip0_24_3161)">
<path d="M27.5 4.6875H2.5C1.9875 4.6875 1.5625 4.2625 1.5625 3.75C1.5625 3.2375 1.9875 2.8125 2.5 2.8125H27.5C28.0125 2.8125 28.4375 3.2375 28.4375 3.75C28.4375 4.2625 28.0125 4.6875 27.5 4.6875Z" fill="white"/>
<path d="M13.75 12.1875H2.5C1.9875 12.1875 1.5625 11.7625 1.5625 11.25C1.5625 10.7375 1.9875 10.3125 2.5 10.3125H13.75C14.2625 10.3125 14.6875 10.7375 14.6875 11.25C14.6875 11.7625 14.2625 12.1875 13.75 12.1875Z" fill="white"/>
<path d="M10 19.6875H2.5C1.9875 19.6875 1.5625 19.2625 1.5625 18.75C1.5625 18.2375 1.9875 17.8125 2.5 17.8125H10C10.5125 17.8125 10.9375 18.2375 10.9375 18.75C10.9375 19.2625 10.5125 19.6875 10 19.6875Z" fill="white"/>
<path d="M7.5 27.1875H2.5C1.9875 27.1875 1.5625 26.7625 1.5625 26.25C1.5625 25.7375 1.9875 25.3125 2.5 25.3125H7.5C8.0125 25.3125 8.4375 25.7375 8.4375 26.25C8.4375 26.7625 8.0125 27.1875 7.5 27.1875Z" fill="white"/>
<path d="M14.8002 28.4377C12.7877 28.4377 11.1377 26.8002 11.1377 24.7752C11.1377 22.7627 12.7752 21.1127 14.8002 21.1127C16.8252 21.1127 18.4627 22.7502 18.4627 24.7752C18.4627 26.8002 16.8252 28.4377 14.8002 28.4377ZM14.8002 23.0002C13.8127 23.0002 13.0127 23.8002 13.0127 24.7877C13.0127 25.7752 13.8127 26.5752 14.8002 26.5752C15.7877 26.5752 16.5877 25.7752 16.5877 24.7877C16.5877 23.8002 15.7877 23.0002 14.8002 23.0002Z" fill="white"/>
<path d="M17.525 25.7126C17.0125 25.7126 16.5875 25.2876 16.5875 24.7751V13.8126C16.5875 12.3001 17.4875 11.1126 18.95 10.7251L24.3875 9.23762C25.575 8.91262 26.6 9.03759 27.325 9.60009C28.05 10.1626 28.425 11.0751 28.425 12.3376V22.9751C28.425 23.4876 28 23.9126 27.4875 23.9126C26.975 23.9126 26.55 23.4876 26.55 22.9751V12.3376C26.55 11.7126 26.425 11.2751 26.1875 11.1001C25.95 10.9126 25.4625 10.9001 24.875 11.0626L19.4375 12.5501C19.075 12.6501 18.4625 12.9501 18.4625 13.8376V24.8001C18.4625 25.3001 18.0375 25.7126 17.525 25.7126Z" fill="white"/>
<path d="M24.7752 26.6251C22.7627 26.6251 21.1127 24.9876 21.1127 22.9626C21.1127 20.9501 22.7502 19.3001 24.7752 19.3001C26.8002 19.3001 28.4377 20.9376 28.4377 22.9626C28.4377 24.9876 26.8002 26.6251 24.7752 26.6251ZM24.7752 21.1876C23.7877 21.1876 22.9877 21.9876 22.9877 22.9751C22.9877 23.9626 23.7877 24.7626 24.7752 24.7626C25.7627 24.7626 26.5627 23.9626 26.5627 22.9751C26.5627 21.9876 25.7627 21.1876 24.7752 21.1876Z" fill="white"/>
<path d="M17.5252 17.9375C17.1127 17.9375 16.7377 17.6625 16.6252 17.25C16.4877 16.75 16.7877 16.2376 17.2877 16.1001L27.2627 13.3751C27.7627 13.2376 28.2752 13.5375 28.4127 14.0375C28.5502 14.5375 28.2502 15.0501 27.7502 15.1876L17.7752 17.9126C17.6877 17.9251 17.6002 17.9375 17.5252 17.9375Z" fill="white"/>
</g>
<defs>
<clipPath id="clip0_24_3161">
<rect width="30" height="30" fill="white"/>
</clipPath>
</defs>
</svg>
